# xmcd CD database file
#
# Track frame offsets:
#	150
#	2681
#	12695
#	29485
#	37480
#	46748
#	56586
#	62814
#	65217
#	78455
#	97147
#	111844
#	121540
#	138626
#	157037
#	171786
#
# Disc length: 2378 seconds
#
# Revision: 2
# Processed by: cddbd v1.5.2PL0 Copyright (c) Steve Scherf et al.
# Submitted via: CDex 1.79
#
DISCID=e7094810
DTITLE=The Great Divide and Friends - Dirt and Spirit
DYEAR=2000
DGENRE=Country
TTITLE0=introduction (Nobody Knows) - Tom Skinner
TTITLE1=Jail Burned Down - The Great Divide
TTITLE2=Jesus Took Me Fishin' - Tom Skinner
TTITLE3=I'm So Glad - The Red Dirt Rangers
TTITLE4=I Know a Man - Cross Canadian Ragweed
TTITLE5=Deliver Us - The Great Divide
TTITLE6=Nobody Knows (continued)
TTITLE7=Burning Still Introduction - Bob Childers
TTITLE8=Burning Still - Bob Childers
TTITLE9=Hung Down Head - Susan Gibson
TTITLE10=God's Blues - The Read Dirt Rangers
TTITLE11=Tie My Boat - Stoney LaRue
TTITLE12=Armor - Jason Boland
TTITLE13=Blind Man - Tom Skinner
TTITLE14=Angels Over Me - The Great Divide
TTITLE15=Nobody Knows (conclustion) - Tom Skinner
EXTD=YEAR: 2000
EXTT0=
EXTT1=
EXTT2=
EXTT3=
EXTT4=
EXTT5=
EXTT6=
EXTT7=
EXTT8=
EXTT9=
EXTT10=
EXTT11=
EXTT12=
EXTT13=
EXTT14=
EXTT15=
PLAYORDER=
